<svg id="Warstwa_1" data-name="Warstwa 1" xmlns="http://www.w3.org/2000/svg" viewBox="0 0 36.43 49.42"><defs><style>.cls-1,.cls-2,.cls-3{fill:none;stroke:#231f20;stroke-width:1.5px;}.cls-1,.cls-3{stroke-linecap:round;}.cls-1{stroke-linejoin:round;}.cls-2,.cls-3{stroke-miterlimit:10;}</style></defs><path class="cls-1" d="M34.78,14V41.19a1.13,1.13,0,0,1-.58,1l-10.52,6"/><path class="cls-2" d="M1.93,7.59V35.75a1.16,1.16,0,0,0,.58,1L22.85,48.36a.56.56,0,0,0,.83-.48V19.12"/><path class="cls-1" d="M12.77,1.1,2.51,6.72a.87.87,0,0,0,0,1.54L23.15,19.67a1,1,0,0,0,.94,0L34.42,14"/><line class="cls-2" x1="1.93" y1="13.52" x2="23.68" y2="25.73"/><line class="cls-2" x1="11.71" y1="18.99" x2="11.71" y2="41.93"/><line class="cls-3" x1="9" y1="24.38" x2="9" y2="29.05"/><line class="cls-3" x1="14.11" y1="26.72" x2="14.11" y2="31.38"/><line class="cls-1" x1="12.77" y1="1.1" x2="12.77" y2="13.96"/></svg>