<svg id="Warstwa_1" data-name="Warstwa 1" xmlns="http://www.w3.org/2000/svg" viewBox="0 0 39.4 62.6"><defs><style>.cls-1{fill:none;}.cls-1,.cls-2{stroke:#231f20;stroke-linejoin:round;stroke-width:1.5px;}.cls-2{fill:#fff;stroke-linecap:round;}</style></defs><path class="cls-1" d="M2,31V44.49a1,1,0,0,0,.48.87L19.36,55.49a.46.46,0,0,0,.69-.42V30"/><path class="cls-1" d="M19.77,31.15l-8.83-5.4a.8.8,0,0,0-.79,0L2.41,30.28a.77.77,0,0,0,0,1.34l17.11,10"/><line class="cls-1" x1="10.13" y1="35.84" x2="10.13" y2="49.87"/><path class="cls-1" d="M3.74,6.44l.12,11.31a1,1,0,0,0,.48.86l15.53,9.31"/><path class="cls-1" d="M12.68,1.54,4.13,5.61A.78.78,0,0,0,4.13,7L20.2,15.78c.24.14,1.7-.81,1.94-.95L29.48,11c.52-.3-.46-.58-1-.88l-15-8.57A.8.8,0,0,0,12.68,1.54Z"/><line class="cls-1" x1="11.65" y1="11.18" x2="11.65" y2="22.93"/><path class="cls-1" d="M37.36,15.41V55.25a1,1,0,0,1-.47.84l-8.43,5.07"/><path class="cls-1" d="M20.09,15.51V55.36c0,.34-.65.21-.36.38l8.44,5.37a.45.45,0,0,0,.67-.41V20.35"/><path class="cls-1" d="M20.46,16l8.07,4.38a.71.71,0,0,0,.72,0L37,16a.68.68,0,0,0,0-1.19L28.71,10.2"/><line class="cls-2" x1="23.13" y1="34.09" x2="23.13" y2="38.02"/></svg>