<svg id="Warstwa_1" data-name="Warstwa 1" xmlns="http://www.w3.org/2000/svg" viewBox="0 0 32.03 60.94"><defs><style>.cls-1{fill:none;stroke:#231f20;stroke-miterlimit:10;stroke-width:1.5px;}</style></defs><path class="cls-1" d="M30.5,11.77V53.45a1,1,0,0,1-.48.84l-8.87,5.05"/><path class="cls-1" d="M2.83,7.2V48.88a1,1,0,0,0,.49.84l17.14,9.76a.46.46,0,0,0,.69-.4V16.9"/><path class="cls-1" d="M11.88,1.74,3.23,6.47a.73.73,0,0,0,0,1.3l17.38,9.59a.87.87,0,0,0,.8,0l8.7-4.74a.72.72,0,0,0,0-1.29L12.67,1.74A.8.8,0,0,0,11.88,1.74Z"/><line class="cls-1" x1="12.5" y1="40.7" x2="12.5" y2="44.12"/><line class="cls-1" x1="12.5" y1="26.62" x2="12.5" y2="30.19"/><line class="cls-1" x1="12.5" y1="13" x2="12.5" y2="15.44"/><path class="cls-1" d="M21.15,48.79l-8.48-4.67a.85.85,0,0,0-.79,0L3.27,48.91a.59.59,0,0,0-.31.6"/><path class="cls-1" d="M21.15,34.39l-8.48-4.66a.8.8,0,0,0-.79,0L3.23,34.46a.73.73,0,0,0,0,1.3l17.38,9.59a.81.81,0,0,0,.8,0"/><path class="cls-1" d="M21.15,20.24l-8.48-4.66a.8.8,0,0,0-.79,0L3.23,20.31a.73.73,0,0,0,0,1.3L20.61,31.2a.87.87,0,0,0,.8,0"/><line class="cls-1" x1="21.15" y1="17.41" x2="21.15" y2="54.96"/></svg>