<?xml version="1.0" encoding="iso-8859-1"?>
<!-- Generator: Adobe Illustrator 19.0.0, SVG Export Plug-In . SVG Version: 6.00 Build 0)  -->
<svg version="1.1" id="Layer_1" xmlns="http://www.w3.org/2000/svg" xmlns:xlink="http://www.w3.org/1999/xlink" x="0px" y="0px"
	 viewBox="0 0 511.999 511.999" style="enable-background:new 0 0 511.999 511.999;" xml:space="preserve">
<g>
	<g>
		<path d="M346.272,31.457l-15.314-15.314c-21.525-21.524-56.547-21.524-78.072,0l-28.541,28.541
			c-0.001,0.001-0.002,0.004-0.005,0.005c-0.001,0.001-0.004,0.002-0.005,0.005L36.657,232.776c-0.02,0.02-0.037,0.042-0.056,0.062
			c-0.262,0.248-0.527,0.489-0.783,0.745c-3.883,3.883-7.376,11.052-11.795,33.406c-5.597,28.32-9.799,66.697-9.974,68.315
			c-0.388,3.569,0.864,7.122,3.401,9.661c2.234,2.236,5.253,3.473,8.378,3.473c0.425,0,0.854-0.024,1.282-0.07
			c1.619-0.175,39.994-4.376,68.314-9.974c22.356-4.418,29.524-7.91,33.409-11.796c0.258-0.258,0.5-0.525,0.749-0.788
			c0.018-0.018,0.038-0.033,0.056-0.051l188.084-187.681c0.001-0.001,0.002-0.004,0.005-0.005c0.001-0.001,0.004-0.002,0.005-0.005
			l28.541-28.541C367.796,88.003,367.796,52.981,346.272,31.457z M112.545,309.351c-1.228,0.626-6.14,2.714-21.716,5.791
			c-16.701,3.302-37.635,6.165-51.456,7.901c1.735-13.818,4.597-34.743,7.901-51.457c3.079-15.575,5.166-20.488,5.791-21.714
			c0.088-0.081,0.182-0.149,0.271-0.229c0.334-0.297,0.672-0.589,1.023-0.856c0.203-0.154,0.417-0.29,0.627-0.435
			c0.239-0.167,0.476-0.339,0.722-0.493c0.284-0.177,0.578-0.332,0.87-0.492c0.177-0.096,0.351-0.201,0.531-0.29
			c0.365-0.181,0.738-0.344,1.115-0.499c0.11-0.046,0.218-0.098,0.329-0.141c0.456-0.177,0.92-0.333,1.39-0.47
			c0.03-0.008,0.059-0.02,0.089-0.028c1.537-0.44,3.146-0.668,4.789-0.668c4.046,0,7.878,1.378,10.964,3.912
			c0.44,0.361,0.866,0.748,1.278,1.159c3.176,3.175,4.94,7.351,5.065,11.709c0,0.02,0.002,0.039,0.004,0.058
			c0.009,0.365,0.007,0.731-0.007,1.099c-0.043,1.101-0.188,2.209-0.444,3.311c-0.922,3.984,0.273,8.163,3.165,11.054
			c2.89,2.892,7.072,4.088,11.054,3.165c1.838-0.425,3.691-0.55,5.502-0.39c3.982,0.353,7.753,2.082,10.675,5.006
			C118.667,291.944,118.822,302.569,112.545,309.351z M138.4,283.535c-1.077-2.94-2.515-5.776-4.286-8.458
			c-0.041-0.063-0.084-0.123-0.126-0.186c-0.326-0.488-0.66-0.973-1.01-1.451c-0.12-0.164-0.246-0.325-0.37-0.487
			c-0.292-0.385-0.582-0.771-0.889-1.148c-0.222-0.273-0.455-0.538-0.685-0.807c-0.232-0.271-0.457-0.546-0.698-0.813
			c-0.486-0.54-0.987-1.071-1.506-1.59c-3.159-3.161-6.739-5.723-10.59-7.664l101.419-101.419c4.628-4.628,4.628-12.131,0-16.76
			c-4.629-4.628-12.13-4.628-16.76,0L101.481,244.171c-1.941-3.85-4.503-7.43-7.662-10.59c-0.033-0.033-0.069-0.064-0.102-0.097
			c-0.481-0.479-0.973-0.943-1.474-1.395c-0.209-0.188-0.424-0.366-0.636-0.549c-0.331-0.286-0.661-0.572-0.999-0.847
			c-0.26-0.211-0.525-0.412-0.789-0.616c-0.294-0.227-0.589-0.454-0.888-0.673c-0.299-0.218-0.602-0.429-0.905-0.639
			c-0.267-0.184-0.534-0.366-0.805-0.544c-0.339-0.223-0.68-0.438-1.025-0.649c-0.231-0.142-0.463-0.281-0.697-0.417
			c-0.391-0.23-0.783-0.454-1.18-0.67c-0.171-0.092-0.342-0.181-0.514-0.271c-0.466-0.245-0.934-0.484-1.408-0.709
			c-0.063-0.03-0.127-0.058-0.19-0.088c-1.095-0.515-2.203-0.992-3.329-1.404L232.736,69.831l5.375,5.375l24.548,24.549
			l18.778,18.777l11.148,11.148L138.4,283.535z M329.514,92.769l-20.16,20.161L279.42,82.996l-11.681-11.681l-18.253-18.253
			l20.161-20.159c12.282-12.283,32.27-12.283,44.553,0l7.657,7.657l7.658,7.657C341.797,60.499,341.797,80.485,329.514,92.769z"/>
	</g>
</g>
<g>
	<g>
		<path d="M251.389,120.335c-0.154-0.758-0.378-1.505-0.674-2.216c-0.296-0.723-0.665-1.41-1.09-2.05
			c-0.438-0.652-0.924-1.256-1.481-1.801c-0.545-0.545-1.151-1.043-1.802-1.469c-0.64-0.427-1.327-0.794-2.038-1.09
			c-0.723-0.296-1.458-0.521-2.216-0.675c-1.529-0.308-3.105-0.308-4.633,0c-0.758,0.154-1.505,0.379-2.216,0.675
			c-0.722,0.296-1.409,0.664-2.049,1.09c-0.652,0.427-1.257,0.924-1.802,1.469c-0.545,0.545-1.043,1.149-1.468,1.801
			c-0.427,0.64-0.795,1.327-1.091,2.05c-0.296,0.711-0.52,1.458-0.674,2.216c-0.154,0.758-0.237,1.541-0.237,2.311
			s0.083,1.552,0.237,2.323c0.153,0.747,0.378,1.493,0.674,2.216c0.296,0.711,0.665,1.398,1.091,2.038
			c0.425,0.652,0.923,1.256,1.468,1.801s1.151,1.043,1.802,1.469c0.64,0.438,1.327,0.806,2.049,1.102
			c0.712,0.296,1.458,0.521,2.216,0.675c0.76,0.154,1.541,0.225,2.311,0.225s1.552-0.071,2.323-0.225
			c0.758-0.154,1.493-0.379,2.216-0.675c0.711-0.296,1.398-0.664,2.038-1.102c0.652-0.427,1.257-0.924,1.802-1.469
			c0.557-0.545,1.043-1.149,1.481-1.801c0.425-0.64,0.794-1.327,1.09-2.038c0.296-0.723,0.52-1.469,0.674-2.216
			c0.155-0.77,0.225-1.552,0.225-2.323S251.543,121.094,251.389,120.335z"/>
	</g>
</g>
<g>
	<g>
		<path d="M498.334,13.603c-4.43-1.836-9.525-0.82-12.915,2.568L425.901,75.69c-0.002,0.002-0.004,0.004-0.006,0.006
			c-0.002,0.002-0.004,0.004-0.006,0.006L289.984,211.607c-0.002,0.002-0.004,0.004-0.006,0.006
			c-0.002,0.002-0.004,0.004-0.006,0.006l-42.353,42.353L137.305,364.286c-0.001,0.001-0.002,0.002-0.004,0.002
			c-0.001,0-0.002,0.002-0.002,0.004l-67.953,67.953l-0.001,0.001l-0.001,0.001L9.821,491.769
			c-3.388,3.389-4.404,8.487-2.569,12.915c1.834,4.428,6.155,7.315,10.949,7.315h475.588c0.004,0,0.008,0,0.012,0
			c0.02,0,0.04-0.002,0.06-0.002c0.327-0.001,0.652-0.019,0.973-0.047c0.109-0.009,0.217-0.024,0.325-0.037
			c0.25-0.028,0.497-0.065,0.743-0.109c0.107-0.019,0.213-0.038,0.32-0.06c0.309-0.064,0.616-0.14,0.917-0.229
			c0.033-0.009,0.066-0.017,0.098-0.026c0.341-0.103,0.674-0.225,1.004-0.358c0.031-0.012,0.062-0.02,0.092-0.033
			c0.087-0.036,0.167-0.078,0.252-0.116c0.145-0.064,0.289-0.128,0.431-0.198c0.127-0.062,0.25-0.128,0.373-0.194
			c0.13-0.07,0.262-0.141,0.39-0.216c0.127-0.075,0.25-0.152,0.373-0.23c0.12-0.076,0.239-0.153,0.357-0.233
			c0.123-0.084,0.242-0.172,0.36-0.261c0.114-0.084,0.225-0.168,0.335-0.257c0.114-0.091,0.225-0.186,0.335-0.281
			c0.109-0.095,0.218-0.19,0.324-0.288c0.103-0.096,0.203-0.194,0.302-0.294c0.107-0.105,0.211-0.213,0.314-0.324
			c0.091-0.098,0.18-0.199,0.268-0.301c0.102-0.117,0.203-0.236,0.301-0.358c0.082-0.102,0.16-0.206,0.238-0.31
			c0.095-0.127,0.188-0.255,0.279-0.385c0.075-0.109,0.146-0.219,0.217-0.331c0.084-0.132,0.167-0.263,0.247-0.399
			c0.07-0.12,0.136-0.242,0.201-0.365c0.071-0.132,0.141-0.262,0.207-0.397c0.065-0.134,0.126-0.27,0.187-0.408
			c0.04-0.09,0.085-0.178,0.123-0.269c0.009-0.024,0.014-0.049,0.024-0.072c0.199-0.489,0.364-0.993,0.497-1.509
			c0.013-0.057,0.031-0.115,0.045-0.174c0.121-0.499,0.206-1.01,0.261-1.528c0.007-0.069,0.018-0.136,0.024-0.204
			c0.031-0.346,0.051-0.694,0.051-1.046V24.552C505.65,19.76,502.762,15.438,498.334,13.603z M298.358,236.752l13.406,13.406
			c2.314,2.314,5.347,3.471,8.379,3.471c3.033,0,6.065-1.157,8.379-3.471c4.628-4.628,4.628-12.131,0-16.76l-13.406-13.406
			l51.199-51.199l13.406,13.408c2.314,2.314,5.347,3.471,8.379,3.471s6.065-1.157,8.379-3.471c4.628-4.628,4.628-12.131,0-16.76
			l-13.406-13.408l51.197-51.197l13.406,13.406c2.314,2.314,5.347,3.471,8.379,3.471s6.065-1.157,8.379-3.471
			c4.628-4.628,4.628-12.131,0-16.76l-13.406-13.406l30.915-30.915v418.378l-47.401-47.401V196.209
			c0-4.792-2.888-9.114-7.315-10.949c-4.428-1.834-9.527-0.82-12.915,2.568l-108.039,108.04l-33.518-33.518L298.358,236.752z
			 M410.845,224.818v192.379H218.467l96.19-96.189c0.002-0.002,0.004-0.005,0.006-0.006L410.845,224.818z M46.812,488.298
			l30.913-30.913l13.408,13.408c2.314,2.314,5.347,3.471,8.379,3.471s6.065-1.158,8.379-3.471c4.628-4.628,4.628-12.131,0-16.759
			l-13.408-13.408l51.199-51.199l13.406,13.406c2.314,2.314,5.347,3.471,8.379,3.471s6.065-1.157,8.379-3.471
			c4.628-4.628,4.628-12.131,0-16.76l-13.406-13.406l51.199-51.199l13.408,13.408c2.314,2.314,5.347,3.471,8.379,3.471
			s6.065-1.157,8.379-3.471c4.628-4.628,4.628-12.131,0-16.76l-13.408-13.408l25.599-25.599l33.518,33.518l-108.04,108.039
			c-3.388,3.389-4.404,8.486-2.569,12.915c1.834,4.428,6.155,7.315,10.949,7.315h227.93l47.402,47.402H46.812z"/>
	</g>
</g>
<g>
</g>
<g>
</g>
<g>
</g>
<g>
</g>
<g>
</g>
<g>
</g>
<g>
</g>
<g>
</g>
<g>
</g>
<g>
</g>
<g>
</g>
<g>
</g>
<g>
</g>
<g>
</g>
<g>
</g>
</svg>
