<svg id="Warstwa_1" data-name="Warstwa 1" xmlns="http://www.w3.org/2000/svg" viewBox="0 0 35.33 50.04"><defs><style>.cls-1,.cls-2{fill:none;stroke:#231f20;stroke-linejoin:round;stroke-width:1.5px;}.cls-2{stroke-linecap:round;}</style></defs><path class="cls-1" d="M33.18,13.17V41.43a1.16,1.16,0,0,1-.55,1l-10,6"/><path class="cls-1" d="M1.94,7.71V36a1.15,1.15,0,0,0,.55,1L21.84,48.62a.52.52,0,0,0,.78-.48V19.28"/><path class="cls-1" d="M12,1.36,2.39,6.84a.89.89,0,0,0,0,1.55L22,19.83a.9.9,0,0,0,.9,0l9.82-5.64a.89.89,0,0,0,0-1.55L12.91,1.36A.9.9,0,0,0,12,1.36Z"/><line class="cls-1" x1="1.94" y1="17.95" x2="22.62" y2="30.21"/><line class="cls-1" x1="11.25" y1="23.47" x2="11.25" y2="42.16"/><line class="cls-2" x1="9.57" y1="17.54" x2="13.75" y2="19.92"/><line class="cls-2" x1="8.66" y1="25.64" x2="8.66" y2="30.32"/><line class="cls-2" x1="13.53" y1="27.98" x2="13.53" y2="32.66"/></svg>