<svg id="Warstwa_1" data-name="Warstwa 1" xmlns="http://www.w3.org/2000/svg" viewBox="0 0 31.56 60.35"><defs><style>.cls-1,.cls-2{fill:none;stroke:#231f20;stroke-miterlimit:10;stroke-width:1.5px;}.cls-2{stroke-linecap:round;}</style></defs><path class="cls-1" d="M29.38,11.79V53a1,1,0,0,1-.48.87l-8.68,5.23"/><path class="cls-1" d="M2.26,7.05V48.22a1,1,0,0,0,.48.86L19.53,59.2a.46.46,0,0,0,.69-.42V17.1"/><path class="cls-1" d="M11.12,1.39,2.65,6.3a.77.77,0,0,0,0,1.34l17.05,9.94a.78.78,0,0,0,.78,0L29,12.67a.77.77,0,0,0,0-1.34L11.9,1.39A.78.78,0,0,0,11.12,1.39Z"/><line class="cls-1" x1="10.98" y1="12.5" x2="10.98" y2="54.04"/><line class="cls-2" x1="8.19" y1="28.05" x2="8.19" y2="32.11"/><line class="cls-2" x1="14.15" y1="30.57" x2="14.15" y2="34.63"/></svg>