<?xml version="1.0" encoding="iso-8859-1"?>
<!-- Generator: Adobe Illustrator 18.0.0, SVG Export Plug-In . SVG Version: 6.00 Build 0)  -->
<!DOCTYPE svg PUBLIC "-//W3C//DTD SVG 1.1//EN" "http://www.w3.org/Graphics/SVG/1.1/DTD/svg11.dtd">
<svg version="1.1" id="Capa_1" xmlns="http://www.w3.org/2000/svg" xmlns:xlink="http://www.w3.org/1999/xlink" x="0px" y="0px"
	 viewBox="0 0 399.642 399.642" style="enable-background:new 0 0 399.642 399.642;" xml:space="preserve">
<g>
	<path d="M397.386,234.55l-46.371-26.859c-0.609-0.352-1.301-0.539-2.005-0.539h-10.064c-1.144-39.072-18.976-74.03-46.606-97.971
		v-8.03c0-16.729-13.606-30.34-30.33-30.34c-8.627,0-16.881,3.748-22.602,10.129c-11.259-3.056-23.094-4.697-35.307-4.697
		c-4.191,0-155.281,0.582-155.281,0.582c-6.126,0-11.11,4.98-11.11,11.106c0,6.044,4.854,10.967,10.868,11.098l-34.126,76.703H11.11
		c-6.126,0-11.11,4.984-11.11,11.11c0,6.126,4.984,11.11,11.11,11.11h58.728c-0.297,3.039-0.492,6.107-0.583,9.201H54.01
		c-1.778,0-3.343,1.173-3.84,2.88l-7.871,26.999c-0.352,1.209-0.115,2.513,0.641,3.52c0.755,1.007,1.941,1.6,3.2,1.6h45.432
		c-0.182,1.531-0.059,3.308,0.613,5.366c2.514,7.741,8.738,8.078,12.456,8.28c3.523,0.191,5.003,0.367,6.265,2.841
		c1.263,2.479,0.535,3.779-1.382,6.741c-2.023,3.126-5.411,8.357-0.629,14.945c4.788,6.587,10.813,4.983,14.413,4.023
		c3.408-0.908,4.87-1.198,6.834,0.763c1.967,1.967,1.677,3.431,0.769,6.844c-0.958,3.599-2.561,9.623,4.02,14.405
		c6.584,4.779,11.82,1.395,14.948-0.628c2.962-1.915,4.262-2.643,6.735-1.385c2.479,1.263,2.655,2.744,2.845,6.268
		c0.2,3.718,0.536,9.941,8.276,12.463c7.739,2.51,11.672-2.327,14.022-5.218c2.225-2.737,3.235-3.832,5.977-3.396
		c2.747,0.436,3.372,1.789,4.643,5.081c1.341,3.474,3.586,9.288,11.724,9.288c8.139,0,10.383-5.814,11.725-9.288
		c1.271-3.292,1.896-4.645,4.642-5.081c2.747-0.435,3.757,0.659,5.981,3.397c2.348,2.891,6.279,7.727,14.021,5.215
		c7.737-2.52,8.075-8.745,8.276-12.463c0.191-3.524,0.367-5.004,2.837-6.264c2.478-1.259,3.78-0.533,6.743,1.384
		c3.125,2.022,8.357,5.408,14.944,0.628c6.589-4.782,4.985-10.809,4.026-14.41c-0.908-3.412-1.198-4.875,0.761-6.837
		c1.966-1.962,3.429-1.672,6.84-0.764c3.6,0.958,9.628,2.563,14.41-4.026c4.78-6.586,1.395-11.817-0.628-14.943
		c-1.917-2.962-2.645-4.264-1.386-6.739c1.262-2.475,2.742-2.651,6.266-2.842c3.719-0.202,9.943-0.539,12.465-8.282
		c0.667-2.057,0.788-3.834,0.604-5.364h78.992c0.006-0.001,0.013-0.001,0.02,0c2.209,0,4-1.791,4-4
		C399.642,236.567,398.721,235.198,397.386,234.55z M262.01,78.811c12.313,0,22.33,10.022,22.33,22.34v1.616
		c-10.921-8.106-23.104-14.6-36.196-19.135C252.039,80.529,256.866,78.811,262.01,78.811z M45.71,87.931
		c0-1.715,1.395-3.11,3.11-3.11h107.948c-4.824,1.813-9.52,3.887-14.064,6.22H54.806c-0.001,0-0.003,0-0.004,0H48.82
		C47.105,91.041,45.71,89.646,45.71,87.931z M73.919,175.731H61.558l34.12-76.69h33.462
		C102.501,116.91,82.559,144.014,73.919,175.731z M37.997,142.491H67.59l-6.376,14.33H31.621L37.997,142.491z M47.933,120.157
		h29.593l-6.377,14.334H41.556L47.933,120.157z M86.922,99.041l-5.836,13.117H51.493l5.836-13.117H86.922z M28.062,164.821h29.594
		l-4.854,10.91H23.208L28.062,164.821z M11.11,189.951c-1.715,0-3.11-1.395-3.11-3.11s1.395-3.11,3.11-3.11h60.885
		c-0.426,2.056-0.802,4.131-1.133,6.22H11.11z M204.101,84.243c68.641,0,124.729,54.773,126.847,122.909h-35.371
		c-2.092-42.396-37.238-76.245-80.143-76.245c-42.906,0-78.051,33.849-80.143,76.245H77.253
		C79.372,139.016,135.459,84.243,204.101,84.243z M223.838,207.152c-1.861-9.195-10.002-16.139-19.737-16.139
		c-9.735,0-17.876,6.944-19.737,16.139h-41.066c2.083-37.983,33.642-68.245,72.135-68.245c38.494,0,70.052,30.262,72.135,68.245
		H223.838z M215.562,207.152h-22.923c1.657-4.734,6.169-8.139,11.461-8.139S213.905,202.418,215.562,207.152z M308.416,245.042
		c-0.766,2.352-1.44,2.557-5.29,2.766c-3.805,0.206-9.554,0.518-12.962,7.2c-3.398,6.683-0.271,11.517,1.798,14.715
		c2.092,3.233,2.322,3.898,0.87,5.898c-1.451,1.999-2.155,1.985-5.878,0.995c-3.682-0.979-9.247-2.462-14.554,2.838
		c-5.296,5.303-3.815,10.869-2.835,14.551c0.991,3.724,1.004,4.427-0.995,5.878c-2.001,1.453-2.665,1.222-5.899-0.87
		c-3.198-2.069-8.031-5.198-14.719-1.796c-6.677,3.406-6.989,9.155-7.195,12.959c-0.208,3.85-0.414,4.524-2.762,5.289
		c-2.348,0.762-2.91,0.337-5.337-2.651c-2.403-2.96-6.034-7.434-13.445-6.255c-7.406,1.176-9.48,6.547-10.852,10.101
		c-1.387,3.593-1.79,4.169-4.261,4.169c-2.471,0-2.874-0.577-4.261-4.169c-1.372-3.554-3.446-8.925-10.852-10.101
		c-7.406-1.177-11.036,3.294-13.44,6.253c-2.431,2.992-2.991,3.415-5.339,2.655c-2.35-0.766-2.554-1.439-2.762-5.286
		c-0.205-3.806-0.515-9.558-7.203-12.966c-6.676-3.398-11.511-0.272-14.71,1.796c-3.239,2.094-3.904,2.324-5.903,0.872
		c-1.994-1.449-1.98-2.152-0.99-5.874c0.98-3.685,2.462-9.253-2.845-14.56c-5.303-5.296-10.866-3.815-14.547-2.835
		c-3.725,0.992-4.429,1.004-5.882-0.995c-1.451-1.999-1.221-2.664,0.872-5.896c2.071-3.199,5.202-8.035,1.794-14.722
		c-3.406-6.678-9.154-6.989-12.958-7.196c-3.845-0.208-4.518-0.413-5.283-2.769c-0.459-1.404-0.397-2.175,0.07-2.888h208.476
		C308.808,242.865,308.872,243.636,308.416,245.042z M51.472,234.151l5.539-18.999h290.925l32.8,18.999H51.472z"/>
	<path d="M135.561,156.445c0.293-1.193,0.021-2.455-0.737-3.422c-0.758-0.967-1.919-1.532-3.148-1.532h-27.333
		c-1.699,0-3.212,1.073-3.774,2.676l-13.334,38c-0.429,1.224-0.239,2.58,0.511,3.638c0.75,1.058,1.966,1.687,3.263,1.687h31.334
		c1.842,0,3.445-1.257,3.885-3.046L135.561,156.445z M119.207,189.491H96.652l10.526-30h19.396L119.207,189.491z"/>
</g>
<g>
</g>
<g>
</g>
<g>
</g>
<g>
</g>
<g>
</g>
<g>
</g>
<g>
</g>
<g>
</g>
<g>
</g>
<g>
</g>
<g>
</g>
<g>
</g>
<g>
</g>
<g>
</g>
<g>
</g>
</svg>
